# xmcd CD database file
#
# Track frame offsets:
#	150
#	23205
#	43314
#	63058
#	84197
#	112914
#	136866
#	160503
#	180941
#	200722
#	223877
#	244599
#
# Disc length: 3426 seconds
#
# Revision: 0
# Processed by: cddbd v1.5.2PL0 Copyright (c) Steve Scherf et al.
# Submitted via: CDex 1.70beta2
#
DISCID=960d600c
DTITLE=Richard Galliano and Eddy Louiss - Face To Face
DYEAR=2001
DGENRE=Jazz
TTITLE0=Sang Mêlé
TTITLE1=Face To Face
TTITLE2=Tribute To Joe Diorio
TTITLE3=Beija-Flor
TTITLE4=I Remember Clifford
TTITLE5=Enlacés
TTITLE6=Laurita
TTITLE7=Berimbau Sermão
TTITLE8=Amandine
TTITLE9=Framboise
TTITLE10=Sous Le Ciel De Paris
TTITLE11=Azul Tango
EXTD=YEAR: 2001
EXTT0=
EXTT1=
EXTT2=
EXTT3=
EXTT4=
EXTT5=
EXTT6=
EXTT7=
EXTT8=
EXTT9=
EXTT10=
EXTT11=
PLAYORDER=
